<svg width="465" height="281" viewBox="0 0 465 281" fill="none" xmlns="http://www.w3.org/2000/svg">
<path opacity="0.5" d="M368.948 86.4008C340.719 29.7592 421.168 57.8711 397.727 17.8791C374.286 -22.1129 179.718 14.054 142.827 38.4349C99.6474 67.228 222.42 165.484 123.641 112.437C24.8627 59.3894 0.302246 158.904 0.302246 191.922C0.302246 241.567 46.1761 281 101.714 281C142.21 281 176.225 259.758 192.163 228.919C205.791 230.752 219.526 231.668 233.276 231.66C334.7 231.66 352.503 223.9 352.503 163.138C352.503 153.729 397.178 143.035 368.948 86.4008Z" fill="url(#paint0_linear)"/>
<path d="M267.264 205.147C268.398 205.26 266.255 221.87 261.15 220.742C256.044 219.613 261.182 204.532 267.264 205.147Z" fill="#2F3E93"/>
<path d="M281.155 215.466C281.019 215.466 280.884 215.44 280.758 215.388C279.204 214.747 276.05 213.078 275.216 211.847C274.521 211.68 273.803 211.637 273.093 211.719C272.818 211.744 272.545 211.658 272.334 211.482C272.122 211.305 271.989 211.052 271.964 210.777C271.94 210.503 272.025 210.23 272.202 210.018C272.378 209.807 272.632 209.674 272.906 209.649C274.126 209.54 276.262 209.527 276.943 210.691C278.312 211.869 279.87 212.807 281.552 213.465C281.775 213.557 281.959 213.723 282.073 213.935C282.187 214.147 282.223 214.392 282.176 214.628C282.129 214.865 282.002 215.077 281.816 215.23C281.629 215.382 281.396 215.465 281.155 215.465V215.466Z" fill="#EA6363"/>
<path d="M287.137 217.615L286.278 217.079C285.984 216.895 285.709 216.737 285.408 216.509L284.526 215.866C284.232 215.653 283.967 215.425 283.684 215.197C283.402 214.969 283.131 214.744 282.869 214.498C282.607 214.252 282.332 214.023 282.081 213.762C281.829 213.502 281.566 213.256 281.323 212.98C281.199 212.841 281.074 212.715 280.952 212.566C280.83 212.418 280.715 212.291 280.57 212.098L281.675 212.759L275.569 211.729C275.263 211.677 274.99 211.51 274.803 211.262C274.617 211.015 274.532 210.705 274.567 210.397C274.602 210.089 274.753 209.806 274.989 209.606C275.226 209.406 275.53 209.304 275.84 209.321L282.019 209.667H282.038C282.259 209.68 282.474 209.748 282.664 209.863C282.853 209.978 283.012 210.137 283.127 210.327C283.175 210.41 283.274 210.548 283.358 210.664C283.441 210.78 283.542 210.908 283.633 211.03C283.814 211.279 284.024 211.514 284.221 211.757C284.418 212 284.645 212.226 284.855 212.462C285.066 212.697 285.297 212.922 285.523 213.142C285.75 213.361 285.978 213.599 286.213 213.796L286.916 214.407C287.136 214.613 287.428 214.814 287.695 215.016L288.505 215.625C288.753 215.814 288.918 216.09 288.967 216.398C289.017 216.705 288.946 217.02 288.77 217.276C288.594 217.533 288.326 217.712 288.022 217.777C287.717 217.842 287.4 217.787 287.134 217.624L287.137 217.615Z" fill="#EA6363"/>
<path d="M291.738 217.224L291.114 216.953C290.896 216.843 290.611 216.68 290.294 216.503C289.95 216.313 289.688 216.137 289.351 215.928C288.692 215.516 287.955 215.025 287.177 214.474C286.399 213.924 285.581 213.328 284.757 212.672C284.555 212.525 284.326 212.304 284.114 212.123L283.952 211.976L283.931 211.959L283.921 211.95L284.068 212.085L284.03 212.059L283.955 212.006L283.808 211.898C283.789 211.898 283.808 211.928 283.808 211.937C283.915 212.01 283.661 211.91 283.537 211.882C283.356 211.845 283.194 211.8 282.994 211.772C282.242 211.653 281.484 211.579 280.723 211.551C280.027 211.522 279.438 211.517 279.029 211.519L278.406 211.529H278.348C277.804 211.527 277.282 211.311 276.894 210.929C276.506 210.546 276.284 210.026 276.275 209.482C276.266 208.937 276.471 208.411 276.846 208.016C277.22 207.62 277.735 207.387 278.279 207.367C278.345 207.367 278.413 207.367 278.476 207.367L279.212 207.424C279.668 207.466 280.314 207.53 281.096 207.641C282.019 207.764 282.933 207.944 283.833 208.181C284.087 208.244 284.374 208.345 284.654 208.438C285.023 208.571 285.379 208.74 285.715 208.943C285.823 209.009 285.95 209.09 286.034 209.155L286.172 209.275L286.458 209.533L286.563 209.643C286.711 209.79 286.831 209.937 287.005 210.096C287.682 210.729 288.41 211.37 289.107 211.943C289.804 212.515 290.465 213.047 291.032 213.47C291.308 213.676 291.598 213.899 291.767 214.015L292.281 214.376L292.881 214.698L292.941 214.73C293.26 214.898 293.501 215.182 293.613 215.524C293.726 215.866 293.7 216.238 293.543 216.561C293.386 216.885 293.109 217.135 292.771 217.258C292.433 217.38 292.06 217.367 291.732 217.22L291.738 217.224Z" fill="#EA6363"/>
<path d="M292.972 212.631L290.659 212.043L290.081 211.895C289.882 211.852 289.685 211.797 289.492 211.731L288.293 211.3C287.503 211.005 286.66 210.739 285.923 210.39C285.166 210.056 284.409 209.742 283.634 209.344L284.729 209.55C283.77 209.752 282.847 209.93 281.901 210.093C280.955 210.256 280.011 210.398 279.056 210.535C278.091 210.642 277.143 210.78 276.138 210.829C275.637 210.852 275.158 210.917 274.635 210.907H273.075C272.383 210.907 271.719 210.632 271.229 210.142C270.74 209.652 270.465 208.988 270.465 208.296C270.465 207.604 270.74 206.94 271.229 206.45C271.719 205.96 272.383 205.685 273.075 205.685C273.205 205.686 273.334 205.695 273.462 205.713L273.649 205.743L274.872 205.933C275.273 206.009 275.728 206.018 276.156 206.065C277.017 206.159 277.921 206.168 278.814 206.212C279.715 206.225 280.62 206.236 281.53 206.212C282.441 206.189 283.362 206.165 284.245 206.119L284.392 206.106C284.726 206.074 285.061 206.152 285.347 206.327C285.962 206.702 286.655 207.051 287.328 207.408C288.007 207.792 288.675 208.042 289.351 208.363L290.365 208.825C290.545 208.903 290.729 208.969 290.917 209.025L291.483 209.213L293.749 209.968H293.76C294.105 210.079 294.392 210.319 294.561 210.639C294.73 210.958 294.768 211.331 294.666 211.678C294.564 212.025 294.331 212.318 294.016 212.496C293.7 212.673 293.329 212.72 292.979 212.627L292.972 212.631Z" fill="#FF9491"/>
<path d="M278.935 220.37L276.781 219.404C276.14 219.154 275.406 218.816 274.602 218.541L273.374 218.099L272.101 217.72C271.687 217.584 271.264 217.473 270.836 217.387L269.621 217.126C269.253 217.053 268.881 217.004 268.507 216.978L267.526 216.87C267.264 216.858 267.002 216.863 266.74 216.884L266.152 216.905L265.643 216.917L265.235 216.925C264.818 216.944 264.401 216.878 264.009 216.733C263.617 216.588 263.259 216.366 262.954 216.08C262.649 215.794 262.404 215.451 262.234 215.069C262.063 214.687 261.971 214.276 261.962 213.858C261.953 213.44 262.028 213.025 262.181 212.636C262.335 212.248 262.565 211.894 262.857 211.595C263.149 211.297 263.498 211.059 263.883 210.897C264.268 210.736 264.682 210.652 265.1 210.652C265.271 210.649 265.441 210.66 265.61 210.683L266.405 210.796L267.31 210.935C267.651 210.998 268.06 211.032 268.457 211.145L269.725 211.523C270.193 211.65 270.653 211.803 271.104 211.981L272.502 212.569C272.976 212.762 273.44 212.981 273.89 213.224L275.241 213.917L276.494 214.652C277.314 215.113 278.02 215.612 278.651 216.002L280.636 217.368C280.992 217.615 281.244 217.985 281.341 218.407C281.439 218.829 281.375 219.273 281.163 219.65C280.951 220.028 280.605 220.313 280.194 220.449C279.783 220.585 279.335 220.563 278.94 220.387L278.935 220.37Z" fill="#FF9491"/>
<path d="M277.757 207.13C276.332 206.374 274.831 205.771 273.278 205.332C272.481 205.332 265.373 206.171 264.139 206.133C262.905 206.094 258.73 205.939 257.813 205.94C256.896 205.941 257.782 214.26 258.796 214.486C259.809 214.713 261.203 216.118 261.773 216.34C263.403 216.934 265.157 217.102 266.87 216.827L277.757 207.13Z" fill="#FF9491"/>
<path d="M37.3988 215.428C46.5571 227.1 76.6654 231.797 94.8555 215.445C113.046 199.094 109.388 186.032 106.103 182.655C102.818 179.279 93.6285 176.092 94.0022 172.904C94.3759 169.716 102.192 158.398 99.6281 152.416C95.4087 142.57 81.3969 144.117 79.1871 140.311C77.3775 137.193 79.0047 124.607 78.2499 119.083C76.9847 109.83 63.1583 102.205 57.3882 117.77C51.6181 133.336 58.8402 138.928 44.6283 143.664C31.8288 147.929 23.7901 198.079 37.3988 215.428Z" fill="#21877B"/>
<path d="M59.3097 237.325C59.2568 237.325 59.204 237.319 59.1523 237.308C58.9651 237.266 58.802 237.152 58.6988 236.99C58.5957 236.829 58.5609 236.633 58.602 236.446C63.3452 215.025 68.1399 128.079 67.0527 108.891C67.0474 108.703 67.1157 108.52 67.2431 108.381C67.3705 108.243 67.5469 108.159 67.735 108.148C67.9231 108.138 68.108 108.201 68.2503 108.324C68.3927 108.447 68.4813 108.621 68.4974 108.809C69.5861 128.05 64.7738 215.263 60.0144 236.757C59.9787 236.918 59.8896 237.062 59.7615 237.165C59.6335 237.268 59.4742 237.325 59.3097 237.325Z" fill="white"/>
<path d="M67.1792 145.038C67.1298 145.038 67.0805 145.033 67.0321 145.023C57.072 142.937 54.0398 129.026 53.0453 124.455C53.0215 124.361 53.0169 124.263 53.0318 124.167C53.0467 124.071 53.0807 123.98 53.1318 123.897C53.183 123.814 53.2501 123.743 53.3294 123.687C53.4087 123.631 53.4984 123.592 53.5933 123.571C53.6881 123.55 53.7862 123.549 53.8815 123.567C53.9769 123.585 54.0677 123.622 54.1484 123.676C54.2292 123.73 54.2983 123.799 54.3517 123.88C54.4051 123.961 54.4416 124.052 54.4591 124.148C55.4066 128.492 58.2842 141.714 67.3307 143.608C67.505 143.645 67.6594 143.746 67.7642 143.89C67.869 144.034 67.9169 144.212 67.8986 144.389C67.8804 144.567 67.7973 144.731 67.6654 144.851C67.5334 144.971 67.3619 145.038 67.1836 145.039L67.1792 145.038Z" fill="white"/>
<path d="M67.5441 135.632C67.3702 135.633 67.2019 135.571 67.0699 135.458C66.938 135.344 66.8512 135.187 66.8255 135.015C66.7998 134.843 66.8369 134.668 66.9299 134.521C67.0229 134.374 67.1658 134.266 67.3322 134.215C75.0958 131.844 78.7121 121.441 78.7121 115.157C78.7121 114.965 78.7883 114.781 78.9241 114.645C79.0598 114.51 79.2439 114.433 79.4359 114.433C79.6279 114.433 79.812 114.51 79.9477 114.645C80.0835 114.781 80.1597 114.965 80.1597 115.157C80.1597 121.872 76.2169 133.012 67.7559 135.607C67.6869 135.626 67.6155 135.634 67.5441 135.632Z" fill="white"/>
<path d="M65.4754 176.554C65.2976 176.553 65.1261 176.487 64.994 176.368C64.8618 176.249 64.7781 176.085 64.7588 175.909C64.7395 175.732 64.786 175.554 64.8894 175.409C64.9929 175.265 65.1459 175.163 65.3195 175.124C81.8662 171.446 93.0151 151.83 93.5668 142.372C93.5825 142.184 93.6712 142.009 93.8139 141.885C93.9567 141.761 94.1422 141.698 94.3308 141.709C94.5194 141.721 94.6962 141.805 94.8234 141.945C94.9506 142.084 95.0181 142.268 95.0115 142.457C94.4318 152.3 82.8372 172.714 65.6299 176.536C65.5792 176.548 65.5274 176.553 65.4754 176.554Z" fill="white"/>
<path d="M63.1201 207.319C62.9418 207.317 62.7702 207.25 62.6383 207.13C62.5063 207.01 62.4233 206.846 62.405 206.669C62.3868 206.491 62.4347 206.313 62.5395 206.169C62.6443 206.025 62.7986 205.924 62.973 205.887C79.6183 202.309 94.9115 189.442 100.162 174.599C100.226 174.418 100.36 174.269 100.533 174.187C100.706 174.104 100.905 174.093 101.086 174.157C101.267 174.221 101.415 174.355 101.498 174.528C101.581 174.701 101.592 174.9 101.528 175.081C96.1179 190.375 80.3892 203.623 63.2761 207.301C63.2248 207.312 63.1725 207.318 63.1201 207.319Z" fill="white"/>
<path d="M62.3962 214.858C62.2104 214.862 62.0306 214.793 61.894 214.667C61.7574 214.541 61.6746 214.367 61.6629 214.182C61.6511 213.996 61.7113 213.814 61.8309 213.671C61.9505 213.529 62.1203 213.438 62.305 213.418C90.058 209.843 103.646 192.312 107.098 177.1C107.116 177.004 107.153 176.914 107.207 176.833C107.262 176.753 107.331 176.684 107.413 176.631C107.494 176.578 107.585 176.542 107.681 176.524C107.776 176.507 107.874 176.51 107.969 176.531C108.063 176.553 108.153 176.593 108.232 176.65C108.31 176.706 108.377 176.778 108.427 176.861C108.477 176.944 108.511 177.037 108.525 177.133C108.539 177.229 108.533 177.327 108.508 177.421C104.942 193.111 90.9819 211.183 62.4904 214.854C62.4591 214.857 62.4277 214.859 62.3962 214.858Z" fill="white"/>
<path d="M37.3989 215.428C25.6292 215.891 12.7075 207.551 12.0043 198.409C11.301 189.267 15.0938 187.176 13.833 183.482C11.7733 177.406 3.35354 174.147 3.14315 164.519C3.07695 161.465 6.80058 158.974 6.80058 153.401C6.80058 147.776 4.00528 143.094 3.14315 134.555C2.15891 124.863 12.2853 119.927 20.0209 129.35C28.9644 140.244 37.5033 139.796 42.6643 142.416C52.0889 147.212 50.8222 161.137 53.9162 163.247C57.0101 165.357 67.5587 163.394 72.0592 175.483C76.5596 187.572 69.5684 214.163 37.3989 215.428Z" fill="#32A59A"/>
<path d="M57.3883 234.996C57.2128 234.996 57.0432 234.933 56.9114 234.817C56.7795 234.701 56.6944 234.541 56.6718 234.367C52.8143 204.698 36.7001 168.618 8.77648 127.124C8.29098 126.402 7.87021 125.779 7.52742 125.262C7.4694 125.183 7.42798 125.093 7.40566 124.998C7.38333 124.902 7.38059 124.803 7.39757 124.707C7.41456 124.611 7.45093 124.519 7.50448 124.437C7.55802 124.355 7.6276 124.285 7.70907 124.23C7.79055 124.176 7.8822 124.139 7.97846 124.121C8.07472 124.103 8.17361 124.105 8.26913 124.126C8.36465 124.148 8.45479 124.188 8.53416 124.246C8.61353 124.303 8.68044 124.376 8.73086 124.46C9.07365 124.975 9.4915 125.596 9.977 126.315C38.0286 167.997 54.2208 204.289 58.1077 234.18C58.1201 234.274 58.1138 234.37 58.0891 234.462C58.0645 234.553 58.0219 234.639 57.964 234.715C57.9061 234.79 57.8338 234.853 57.7515 234.9C57.6691 234.948 57.5781 234.978 57.4839 234.991C57.4522 234.994 57.4203 234.996 57.3883 234.996Z" fill="white"/>
<path d="M21.5333 146.394C12.6457 146.394 3.01952 135.144 1.22317 132.112C1.17149 132.03 1.13677 131.938 1.12108 131.843C1.10538 131.747 1.10903 131.649 1.13181 131.555C1.15458 131.461 1.19602 131.372 1.25366 131.295C1.3113 131.217 1.38396 131.151 1.46737 131.102C1.55078 131.053 1.64323 131.021 1.73923 131.008C1.83523 130.995 1.93283 131.002 2.02626 131.027C2.11969 131.053 2.20702 131.097 2.28312 131.157C2.35922 131.217 2.42252 131.291 2.46927 131.376C4.10967 134.146 13.3857 144.949 21.5333 144.949C21.5528 144.951 21.5725 144.951 21.5921 144.949C21.7841 144.949 21.9682 145.026 22.1039 145.161C22.2397 145.297 22.316 145.481 22.316 145.673C22.316 145.865 22.2397 146.049 22.1039 146.185C21.9682 146.321 21.7841 146.397 21.5921 146.397L21.5333 146.394Z" fill="white"/>
<path d="M32.866 169.747C23.1236 169.747 7.24922 157.511 3.94635 149.984C3.86831 149.808 3.86323 149.609 3.93221 149.43C4.00118 149.25 4.13857 149.106 4.31415 149.028C4.48974 148.949 4.68917 148.944 4.86851 149.013C5.04784 149.082 5.19244 149.22 5.27048 149.395C8.56011 156.899 25.8336 169.914 34.524 168.137C34.6183 168.115 34.7161 168.111 34.8117 168.127C34.9073 168.143 34.9987 168.178 35.0805 168.23C35.1623 168.282 35.2328 168.35 35.288 168.429C35.3431 168.509 35.3816 168.599 35.4013 168.694C35.421 168.789 35.4215 168.887 35.4027 168.982C35.3839 169.077 35.3461 169.167 35.2917 169.247C35.2374 169.327 35.1674 169.396 35.0861 169.449C35.0048 169.501 34.9137 169.537 34.8183 169.554C34.1757 169.684 33.5216 169.749 32.866 169.747Z" fill="white"/>
<path d="M37.2752 174.722C37.1286 174.722 36.9856 174.677 36.865 174.594C36.7444 174.511 36.6519 174.393 36.5997 174.256C36.5476 174.119 36.5383 173.969 36.573 173.827C36.6077 173.685 36.6848 173.556 36.7941 173.458C44.5665 166.544 44.3047 149.969 41.9757 142.632C41.9172 142.449 41.9338 142.25 42.0218 142.08C42.1098 141.909 42.2621 141.78 42.4451 141.721C42.6281 141.663 42.8268 141.679 42.9976 141.767C43.1684 141.856 43.2972 142.008 43.3557 142.191C45.7862 149.841 45.9951 167.201 37.7563 174.535C37.6245 174.655 37.4531 174.721 37.2752 174.722Z" fill="white"/>
<path d="M33.8444 180.795C18.1024 180.795 4.1465 166.239 2.03531 162.502C1.98441 162.42 1.95075 162.327 1.93631 162.231C1.92187 162.135 1.92694 162.037 1.95126 161.943C1.97558 161.848 2.01863 161.76 2.07783 161.683C2.13703 161.606 2.21119 161.541 2.29585 161.494C2.38051 161.446 2.47394 161.415 2.57058 161.404C2.66722 161.393 2.76506 161.402 2.85829 161.43C2.95152 161.457 3.0382 161.504 3.11317 161.566C3.18815 161.628 3.24987 161.704 3.29465 161.79C5.58239 165.841 22.3528 183.136 39.6586 178.608C39.8409 178.568 40.0313 178.601 40.1902 178.699C40.3491 178.796 40.4641 178.952 40.5114 179.132C40.5586 179.312 40.5344 179.504 40.4438 179.667C40.3532 179.83 40.2031 179.952 40.025 180.007C38.0071 180.534 35.9299 180.799 33.8444 180.795Z" fill="white"/>
<path d="M34.6653 187.578C23.565 187.424 12.9376 183.059 4.9336 175.367C4.79332 175.236 4.71088 175.054 4.70439 174.862C4.69791 174.67 4.76792 174.484 4.89903 174.344C5.03013 174.203 5.21156 174.121 5.40345 174.114C5.59534 174.108 5.78197 174.178 5.92225 174.309C10.7254 178.974 16.5828 182.412 22.9977 184.331C29.4126 186.25 36.1957 186.594 42.7717 185.333C42.9592 185.299 43.1525 185.34 43.3097 185.448C43.467 185.555 43.5754 185.72 43.6117 185.907C43.6479 186.094 43.6089 186.288 43.5031 186.447C43.3974 186.605 43.2334 186.716 43.0468 186.754C40.2858 187.296 37.4791 187.572 34.6653 187.578Z" fill="white"/>
<path d="M48.3344 200.143C48.1664 200.143 48.0039 200.084 47.8748 199.976C47.7456 199.869 47.6579 199.72 47.6266 199.555C47.5953 199.389 47.6223 199.219 47.7032 199.071C47.784 198.924 47.9136 198.809 48.0696 198.747C63.8454 192.568 60.3998 167.968 59.9555 165.183C59.9406 165.089 59.9442 164.993 59.9663 164.901C59.9884 164.808 60.0285 164.721 60.0843 164.644C60.1401 164.567 60.2106 164.502 60.2916 164.452C60.3726 164.402 60.4626 164.369 60.5565 164.354C60.6504 164.339 60.7464 164.343 60.8388 164.365C60.9313 164.387 61.0185 164.427 61.0955 164.483C61.1725 164.539 61.2377 164.609 61.2875 164.69C61.3373 164.771 61.3706 164.861 61.3856 164.955C61.849 167.858 65.4284 193.508 48.5978 200.093C48.5138 200.126 48.4246 200.143 48.3344 200.143Z" fill="white"/>
<path d="M37.6211 211.341C32.1998 211.432 26.8264 210.312 21.8929 208.063C16.9593 205.814 12.5899 202.492 9.10309 198.34C8.98713 198.191 8.93357 198.003 8.95376 197.816C8.97396 197.629 9.06631 197.457 9.21125 197.337C9.35619 197.217 9.5423 197.158 9.73005 197.172C9.91779 197.187 10.0924 197.274 10.2168 197.416C14.6878 202.806 27.6404 214.613 51.2813 207.861C51.3727 207.835 51.4683 207.827 51.5628 207.838C51.6572 207.849 51.7486 207.878 51.8317 207.924C51.9149 207.97 51.9881 208.032 52.0473 208.107C52.1064 208.181 52.1503 208.266 52.1765 208.358C52.2027 208.449 52.2106 208.545 52.1999 208.639C52.1891 208.734 52.1598 208.825 52.1137 208.908C52.0676 208.991 52.0055 209.065 51.9311 209.124C51.8567 209.183 51.7714 209.227 51.68 209.253C47.1139 210.601 42.3818 211.304 37.6211 211.341Z" fill="white"/>
<path d="M340.427 36.1547H74.7427V176.604H340.427V36.1547Z" fill="url(#paint1_linear)"/>
<path d="M137.706 159.25C137.514 159.25 137.33 159.173 137.194 159.038C137.059 158.902 136.982 158.718 136.982 158.526V56.1294C136.982 55.9374 137.059 55.7533 137.194 55.6175C137.33 55.4818 137.514 55.4055 137.706 55.4055C137.898 55.4055 138.082 55.4818 138.218 55.6175C138.354 55.7533 138.43 55.9374 138.43 56.1294V158.526C138.43 158.718 138.354 158.902 138.218 159.038C138.082 159.173 137.898 159.25 137.706 159.25Z" fill="white"/>
<path d="M207.584 159.25C207.392 159.25 207.208 159.173 207.073 159.038C206.937 158.902 206.861 158.718 206.861 158.526V56.1294C206.861 55.9374 206.937 55.7533 207.073 55.6175C207.208 55.4818 207.392 55.4055 207.584 55.4055C207.776 55.4055 207.96 55.4818 208.096 55.6175C208.232 55.7533 208.308 55.9374 208.308 56.1294V158.526C208.308 158.718 208.232 158.902 208.096 159.038C207.96 159.173 207.776 159.25 207.584 159.25Z" fill="white"/>
<path d="M277.462 159.25C277.271 159.25 277.086 159.173 276.951 159.038C276.815 158.902 276.739 158.718 276.739 158.526V56.1294C276.739 55.9374 276.815 55.7533 276.951 55.6175C277.086 55.4818 277.271 55.4055 277.462 55.4055C277.654 55.4055 277.839 55.4818 277.974 55.6175C278.11 55.7533 278.186 55.9374 278.186 56.1294V158.526C278.186 158.718 278.11 158.902 277.974 159.038C277.839 159.173 277.654 159.25 277.462 159.25Z" fill="white"/>
<path d="M309.314 87.135H101.513C101.321 87.135 101.137 87.0588 101.001 86.923C100.865 86.7873 100.789 86.6032 100.789 86.4112C100.789 86.2192 100.865 86.0351 101.001 85.8994C101.137 85.7636 101.321 85.6874 101.513 85.6874H309.314C309.506 85.6874 309.69 85.7636 309.826 85.8994C309.962 86.0351 310.038 86.2192 310.038 86.4112C310.038 86.6032 309.962 86.7873 309.826 86.923C309.69 87.0588 309.506 87.135 309.314 87.135Z" fill="white"/>
<path d="M309.314 129.515H101.513C101.321 129.515 101.137 129.439 101.001 129.303C100.865 129.167 100.789 128.983 100.789 128.791C100.789 128.599 100.865 128.415 101.001 128.279C101.137 128.144 101.321 128.067 101.513 128.067H309.314C309.506 128.067 309.69 128.144 309.826 128.279C309.962 128.415 310.038 128.599 310.038 128.791C310.038 128.983 309.962 129.167 309.826 129.303C309.69 129.439 309.506 129.515 309.314 129.515Z" fill="white"/>
<path d="M125.582 61.9744H86.5108C85.6539 61.9179 84.8505 61.5375 84.2635 60.9105C83.6766 60.2835 83.35 59.4569 83.35 58.598C83.35 57.7392 83.6766 56.9125 84.2635 56.2855C84.8505 55.6585 85.6539 55.2782 86.5108 55.2216H125.582C126.044 55.1911 126.507 55.2558 126.944 55.4116C127.38 55.5675 127.779 55.8112 128.117 56.1277C128.455 56.4443 128.725 56.8268 128.909 57.2517C129.094 57.6766 129.189 58.1349 129.189 58.598C129.189 59.0612 129.094 59.5194 128.909 59.9443C128.725 60.3692 128.455 60.7518 128.117 61.0683C127.779 61.3848 127.38 61.6286 126.944 61.7844C126.507 61.9403 126.044 62.005 125.582 61.9744Z" fill="white"/>
<path d="M125.582 77.5708H96.9609C96.4988 77.6013 96.0353 77.5366 95.5992 77.3808C95.163 77.2249 94.7635 76.9811 94.4254 76.6646C94.0873 76.3481 93.8178 75.9655 93.6335 75.5406C93.4492 75.1157 93.3541 74.6575 93.3541 74.1943C93.3541 73.7312 93.4492 73.273 93.6335 72.848C93.8178 72.4231 94.0873 72.0406 94.4254 71.7241C94.7635 71.4075 95.163 71.1638 95.5992 71.0079C96.0353 70.8521 96.4988 70.7874 96.9609 70.8179H125.582C126.044 70.7874 126.508 70.8521 126.944 71.0079C127.38 71.1638 127.779 71.4075 128.117 71.7241C128.456 72.0406 128.725 72.4231 128.909 72.848C129.094 73.273 129.189 73.7312 129.189 74.1943C129.189 74.6575 129.094 75.1157 128.909 75.5406C128.725 75.9655 128.456 76.3481 128.117 76.6646C127.779 76.9811 127.38 77.2249 126.944 77.3808C126.508 77.5366 126.044 77.6013 125.582 77.5708Z" fill="white"/>
<path d="M208.679 220.421L261.148 220.736C260.183 217.287 260.208 207.235 267.263 205.141L216.223 198.197C216.223 198.197 204.613 170.993 202.66 167.415L185.684 158.053C180.664 160.931 197.174 200.188 203.464 216.798C203.864 217.858 204.577 218.772 205.509 219.419C206.44 220.066 207.545 220.415 208.679 220.421Z" fill="#404AA9"/>
<path d="M203.655 169.45V169.438L185.896 167.958C189.222 181.402 198.966 204.907 203.471 216.802C203.873 217.861 204.586 218.774 205.517 219.42C206.447 220.066 207.552 220.414 208.685 220.42C208.685 220.42 209.757 183.188 203.655 169.45Z" fill="#2F3E93"/>
<path d="M200.559 237.017C203.649 221.314 213.05 177.419 199.554 162.803C193.063 155.772 179.731 151.66 179.731 151.66L159.823 149.291C159.823 149.291 138.732 156.387 133.016 161.118C127.3 165.85 112.732 189.685 112.732 189.685L144.172 193.617C145.855 201.381 143.523 219.805 140.606 237.018L200.559 237.017Z" fill="#404AA9"/>
<path d="M177.195 143.977L179.808 144.942L182.421 149.289L176.592 149.598L177.195 143.977Z" fill="#404AA9"/>
<path d="M156.051 149.294C156.051 149.294 174.441 143.936 183.426 149.294L188.133 169.26L193.084 205.187V225.794H169.195C169.195 225.794 170.888 209.419 168.138 196.874C166.87 191.059 156.051 149.294 156.051 149.294Z" fill="white"/>
<path d="M164.787 122.066C164.787 122.066 163.502 136.718 156.548 146.607C156.548 156.526 175.557 161.545 179.447 155.319C179.75 154.763 179.932 154.15 179.981 153.519C180.031 152.888 179.946 152.254 179.734 151.658C178.513 147.514 177.881 143.219 177.857 138.898L164.787 122.066Z" fill="#FF9491"/>
<path d="M177.854 138.9L164.787 122.066C164.56 124.232 164.216 126.384 163.757 128.513C163.997 132.69 165.397 145.873 179.043 149.294C178.294 145.879 177.896 142.396 177.854 138.9Z" fill="#EA6363"/>
<path d="M169.78 186.982C166.496 171.649 157.832 151.17 160.973 138.073C152.44 145.804 149.588 165.043 149.588 165.043L160.327 169.989L156.061 175.055C156.061 175.055 168.419 204.935 169.63 220.398C170.111 216.302 170.535 212.59 170.892 209.419C171.735 201.929 171.359 194.352 169.78 186.982Z" fill="#759BD4"/>
<path d="M178.261 144.888L178.086 143.26C183.717 144.792 198.536 163.019 198.536 163.019L190.871 172.027L196.878 174.822C196.878 174.822 193.656 211.823 197.546 227.424C185.203 212.36 186.438 151.955 178.261 144.888Z" fill="#759BD4"/>
<path d="M185.304 141.585C189.611 140.135 206.971 90.3982 173.561 91.1618C142.177 91.8797 163.941 148.773 185.304 141.585Z" fill="#FF9491"/>
<path d="M193.283 118.884C193.927 114.249 193.759 109.537 192.785 104.96L175.179 110.832C179.191 115.862 184.601 119.11 193.283 118.884Z" fill="#EA6363"/>
<path d="M158.668 116.509C158.668 116.509 146.691 99.1491 158.294 92.433C162.371 90.079 166.483 94.2396 166.483 94.2396C166.483 94.2396 168.396 84.7518 177.013 85.8375C191.093 87.6118 197.645 109.168 206.231 107.161C201.964 119.54 183.917 111.172 183.917 111.172L183.512 114.07C183.512 114.07 174.772 115.022 172.005 104.928C170.827 110.795 168.377 116.333 164.827 121.15L158.668 116.509Z" fill="#002951"/>
<path d="M165.68 123.654C167.323 121.383 166.814 118.209 164.542 116.566C162.271 114.923 159.098 115.432 157.455 117.704C155.812 119.975 156.321 123.148 158.592 124.791C160.863 126.434 164.037 125.925 165.68 123.654Z" fill="#FF9491"/>
<path d="M163.886 120.165C163.785 119.707 163.55 119.288 163.211 118.963C162.872 118.638 162.444 118.421 161.982 118.339C161.52 118.257 161.043 118.314 160.613 118.503C160.183 118.692 159.819 119.004 159.566 119.4C159.313 119.796 159.184 120.258 159.194 120.727C159.203 121.197 159.352 121.653 159.621 122.038C159.89 122.423 160.268 122.719 160.705 122.89C161.143 123.06 161.621 123.097 162.08 122.996C162.695 122.86 163.23 122.486 163.569 121.955C163.908 121.424 164.022 120.78 163.886 120.165Z" fill="#EA6363"/>
<path d="M166.526 97.4719C166.479 97.4717 166.433 97.4673 166.387 97.4586C166.199 97.4219 166.033 97.3122 165.926 97.1534C165.818 96.9946 165.778 96.7996 165.814 96.6112C166.115 95.228 165.954 93.7839 165.354 92.5014C164.755 91.2189 163.75 90.1693 162.495 89.5141C162.409 89.4668 162.335 89.4027 162.275 89.3258C162.215 89.2489 162.171 89.1607 162.146 89.0664C162.121 88.9722 162.116 88.8739 162.13 88.7774C162.144 88.6809 162.177 88.5883 162.228 88.505C162.278 88.4217 162.345 88.3495 162.424 88.2928C162.504 88.236 162.594 88.1958 162.689 88.1746C162.784 88.1535 162.882 88.1517 162.978 88.1695C163.074 88.1873 163.165 88.2243 163.246 88.2783C164.759 89.0823 165.966 90.3584 166.686 91.9124C167.406 93.4664 167.598 95.213 167.233 96.8863C167.201 97.0506 167.113 97.1987 166.984 97.3054C166.855 97.4121 166.693 97.4709 166.526 97.4719Z" fill="#002951"/>
<path d="M179.506 210.857C181.86 211.169 184.813 220.624 181.314 225.863H167.326C167.326 225.863 171.306 209.778 179.506 210.857Z" fill="#2F3E93"/>
<path d="M279.836 200.115L294.737 200.248V200.274H279.836V200.115Z" fill="#759BD4"/>
<path d="M279.836 199.581L294.737 199.714V200.248L279.836 200.115V199.581Z" fill="#749AD3"/>
<path d="M279.836 199.046L294.737 199.178V199.712L279.836 199.58V199.046Z" fill="#7499D3"/>
<path d="M279.836 198.512L294.737 198.644V199.178L279.836 199.046V198.512Z" fill="#7398D2"/>
<path d="M279.836 197.978L294.737 198.11V198.644L279.836 198.512V197.978Z" fill="#7297D2"/>
<path d="M279.836 197.442L294.737 197.575V198.109L279.836 197.976V197.442Z" fill="#7296D1"/>
<path d="M279.836 196.908L294.737 197.041V197.575L279.836 197.442V196.908Z" fill="#7195D1"/>
<path d="M279.836 196.37L294.737 196.502V197.036L279.836 196.904V196.37Z" fill="#7094D0"/>
<path d="M279.836 195.84L294.737 195.973V196.507L279.836 196.374V195.84Z" fill="#7093D0"/>
<path d="M279.836 195.312L294.737 195.444V195.978L279.836 195.846V195.312Z" fill="#6F92CF"/>
<path d="M279.836 194.771L294.737 194.903V195.437L279.836 195.305V194.771Z" fill="#6E91CF"/>
<path d="M279.836 194.237L294.737 194.369V194.903L279.836 194.771V194.237Z" fill="#6E90CE"/>
<path d="M279.836 193.701L294.737 193.833V194.367L279.836 194.235V193.701Z" fill="#6D8FCE"/>
<path d="M279.836 193.167L294.737 193.299V193.833L279.836 193.701V193.167Z" fill="#6C8ECD"/>
<path d="M279.836 192.633L294.737 192.765V193.299L279.836 193.167V192.633Z" fill="#6C8DCC"/>
<path d="M279.836 192.099L294.737 192.231V192.765L279.836 192.633V192.099Z" fill="#6B8CCC"/>
<path d="M279.836 191.563L294.737 191.696V192.23L279.836 192.097V191.563Z" fill="#6A8BCB"/>
<path d="M279.836 191.029L294.737 191.162V191.696L279.836 191.563V191.029Z" fill="#6A8ACB"/>
<path d="M279.836 190.495L294.737 190.628V191.162L279.836 191.029V190.495Z" fill="#6989CA"/>
<path d="M279.836 189.96L294.737 190.092V190.626L279.836 190.494V189.96Z" fill="#6888CA"/>
<path d="M279.836 189.424L294.737 189.557V190.091L279.836 189.958V189.424Z" fill="#6887C9"/>
<path d="M279.836 188.893L294.737 189.025V189.56L279.836 189.427V188.893Z" fill="#6786C9"/>
<path d="M279.836 188.359L294.737 188.492V189.026L279.836 188.893V188.359Z" fill="#6685C8"/>
<path d="M279.836 187.824L294.737 187.956V188.49L279.836 188.358V187.824Z" fill="#6684C8"/>
<path d="M279.836 187.289L294.737 187.422V187.956L279.836 187.823V187.289Z" fill="#6583C7"/>
<path d="M279.836 186.755L294.737 186.888V187.422L279.836 187.289V186.755Z" fill="#6482C7"/>
<path d="M279.836 186.22L294.737 186.352V186.886L279.836 186.754V186.22Z" fill="#6481C6"/>
<path d="M279.836 185.686L294.737 185.818V186.352L279.836 186.22V185.686Z" fill="#6380C5"/>
<path d="M279.836 185.152L294.737 185.284V185.818L279.836 185.686V185.152Z" fill="#627FC5"/>
<path d="M279.836 184.618L294.737 184.75V185.284L279.836 185.152V184.618Z" fill="#627EC4"/>
<path d="M279.836 184.082L294.737 184.215V184.749L279.836 184.616V184.082Z" fill="#617DC4"/>
<path d="M279.836 183.548L294.737 183.681V184.215L279.836 184.082V183.548Z" fill="#607CC3"/>
<path d="M279.836 183.014L294.737 183.147V183.681L279.836 183.548V183.014Z" fill="#607BC3"/>
<path d="M279.836 182.479L294.737 182.611V183.145L279.836 183.013V182.479Z" fill="#5F7AC2"/>
<path d="M279.836 181.944L294.737 182.077V182.611L279.836 182.479V181.944Z" fill="#5E79C2"/>
<path d="M279.836 181.411L294.737 181.543V182.077L279.836 181.945V181.411Z" fill="#5E78C1"/>
<path d="M279.836 180.876L294.737 181.009V181.543L279.836 181.409V180.876Z" fill="#5D77C1"/>
<path d="M279.836 180.341L294.737 180.473V181.007L279.836 180.875V180.341Z" fill="#5C76C0"/>
<path d="M279.836 179.807L294.737 179.939V180.473L279.836 180.341V179.807Z" fill="#5C75C0"/>
<path d="M279.836 179.273L294.737 179.405V179.939L279.836 179.807V179.273Z" fill="#5B74BF"/>
<path d="M279.836 178.737L294.737 178.87V179.404L279.836 179.271V178.737Z" fill="#5B73BF"/>
<path d="M279.836 178.203L294.737 178.336V178.87L279.836 178.737V178.203Z" fill="#5A71BE"/>
<path d="M279.836 177.669L294.737 177.802V178.336L279.836 178.203V177.669Z" fill="#5970BD"/>
<path d="M279.836 177.135L294.737 177.268V177.802L279.836 177.669V177.135Z" fill="#596FBD"/>
<path d="M279.836 176.6L294.737 176.732V177.266L279.836 177.134V176.6Z" fill="#586EBC"/>
<path d="M279.836 176.066L294.737 176.198V176.732L279.836 176.6V176.066Z" fill="#576DBC"/>
<path d="M279.836 175.534L294.737 175.667V176.201L279.836 176.068V175.534Z" fill="#576CBB"/>
<path d="M279.836 174.996L294.737 175.128V175.667L279.836 175.535V174.996Z" fill="#566BBB"/>
<path d="M279.836 174.462L294.737 174.594V175.128L279.836 174.996V174.462Z" fill="#556ABA"/>
<path d="M279.836 173.928L294.737 174.06V174.594L279.836 174.462V173.928Z" fill="#5569BA"/>
<path d="M279.836 173.394L294.737 173.526V174.06L279.836 173.928V173.394Z" fill="#5468B9"/>
<path d="M279.836 172.858L294.737 172.991V173.525L279.836 173.392V172.858Z" fill="#5367B9"/>
<path d="M279.836 172.324L294.737 172.457V172.991L279.836 172.858V172.324Z" fill="#5366B8"/>
<path d="M279.836 171.79L294.737 171.923V172.457L279.836 172.324V171.79Z" fill="#5265B8"/>
<path d="M279.836 171.255L294.737 171.387V171.921L279.836 171.789V171.255Z" fill="#5164B7"/>
<path d="M279.836 170.721L294.737 170.853V171.387L279.836 171.255V170.721Z" fill="#5163B6"/>
<path d="M279.836 170.187L294.737 170.319V170.853L279.836 170.721V170.187Z" fill="#5062B6"/>
<path d="M279.836 169.647L294.737 169.779V170.313L279.836 170.181V169.647Z" fill="#4F61B5"/>
<path d="M279.836 169.117L294.737 169.249V169.784L279.836 169.651V169.117Z" fill="#4F60B5"/>
<path d="M279.836 168.589L294.737 168.721V169.255L279.836 169.123V168.589Z" fill="#4E5FB4"/>
<path d="M279.836 168.049L294.737 168.181V168.715L279.836 168.583V168.049Z" fill="#4D5EB4"/>
<path d="M279.836 167.515L294.737 167.647V168.181L279.836 168.049V167.515Z" fill="#4D5DB3"/>
<path d="M279.836 166.981L294.737 167.113V167.647L279.836 167.515V166.981Z" fill="#4C5CB3"/>
<path d="M279.836 166.447L294.737 166.579V167.113L279.836 166.981V166.447Z" fill="#4B5BB2"/>
<path d="M279.836 165.913L294.737 166.045V166.579L279.836 166.447V165.913Z" fill="#4B5AB2"/>
<path d="M279.836 165.377L294.737 165.51V166.044L279.836 165.911V165.377Z" fill="#4A59B1"/>
<path d="M279.836 164.843L294.737 164.976V165.51L279.836 165.377V164.843Z" fill="#4958B1"/>
<path d="M279.836 164.309L294.737 164.441V164.976L279.836 164.843V164.309Z" fill="#4957B0"/>
<path d="M279.836 163.774L294.737 163.906V164.44L279.836 164.308V163.774Z" fill="#4856AF"/>
<path d="M279.836 163.24L294.737 163.372V163.906L279.836 163.774V163.24Z" fill="#4755AF"/>
<path d="M279.836 162.701L294.737 162.834V163.368L279.836 163.235V162.701Z" fill="#4754AE"/>
<path d="M279.836 162.17L294.737 162.302V162.837L279.836 162.704V162.17Z" fill="#4653AE"/>
<path d="M279.836 161.636L294.737 161.768V162.302L279.836 162.17V161.636Z" fill="#4552AD"/>
<path d="M279.836 161.102L294.737 161.234V161.768L279.836 161.636V161.102Z" fill="#4551AD"/>
<path d="M279.836 160.568L294.737 160.7V161.234L279.836 161.102V160.568Z" fill="#4450AC"/>
<path d="M279.836 160.032L294.737 160.165V160.699L279.836 160.566V160.032Z" fill="#434FAC"/>
<path d="M279.836 159.498L294.737 159.631V160.165L279.836 160.032V159.498Z" fill="#434EAB"/>
<path d="M279.836 158.964L294.737 159.097V159.631L279.836 159.498V158.964Z" fill="#424DAB"/>
<path d="M279.836 158.43L294.737 158.563V159.097L279.836 158.964V158.43Z" fill="#414CAA"/>
<path d="M279.836 157.895L294.737 158.027V158.561L279.836 158.429V157.895Z" fill="#414BAA"/>
<path d="M279.836 157.361L294.737 157.493V158.028L279.836 157.895V157.361Z" fill="#404AA9"/>
<path d="M294.737 157.493L279.836 157.361V157.25H294.737V157.493Z" fill="#404AA9"/>
<path d="M173.57 222.12C168.443 220.712 162.564 223.546 158.643 224.411C154.722 225.276 152.493 215.515 152.493 215.515L175.959 212.682L173.57 222.12Z" fill="#EA6363"/>
<path d="M150.181 184.804L132.232 181.602C132.232 181.602 133.148 186.32 134.55 192.417L144.171 193.62C145.253 198.613 144.674 208.019 143.347 218.673C144.443 219.75 152.271 204.273 150.181 184.804Z" fill="#2F3E93"/>
<path d="M263.983 188.286C263.983 188.008 263.901 187.738 263.747 187.507C263.593 187.277 263.374 187.097 263.118 186.991C262.862 186.885 262.581 186.858 262.309 186.912C262.037 186.966 261.788 187.1 261.592 187.296C261.396 187.492 261.263 187.741 261.209 188.013C261.155 188.285 261.183 188.567 261.289 188.822C261.395 189.078 261.575 189.297 261.806 189.451C262.036 189.605 262.307 189.686 262.584 189.686C262.768 189.686 262.95 189.65 263.12 189.579C263.29 189.509 263.444 189.406 263.574 189.276C263.704 189.146 263.807 188.991 263.877 188.821C263.947 188.651 263.983 188.469 263.983 188.286Z" fill="#404AA9"/>
<path d="M188.592 223.777L188.487 223.718C188.396 223.664 188.304 223.615 188.208 223.571C188.022 223.487 187.655 223.313 187.221 223.141C186.154 222.711 185.057 222.36 183.938 222.094C183.367 221.957 182.788 221.856 182.204 221.791C181.742 221.732 181.275 221.718 180.81 221.748C180.648 221.751 180.488 221.77 180.33 221.805C180.221 221.816 180.113 221.84 180.009 221.878L179.77 221.953L179.653 221.988C179.364 222.085 179.059 222.123 178.755 222.1C178.452 222.078 178.155 221.995 177.884 221.856C177.613 221.718 177.372 221.526 177.175 221.293C176.979 221.06 176.831 220.79 176.74 220.5C176.649 220.209 176.617 219.903 176.647 219.599C176.676 219.296 176.765 219.002 176.909 218.733C177.053 218.465 177.25 218.228 177.487 218.037C177.724 217.845 177.997 217.703 178.29 217.618C178.426 217.577 178.567 217.547 178.709 217.53L179.38 217.454C179.624 217.426 179.87 217.419 180.115 217.432C180.414 217.429 180.712 217.449 181.007 217.49C181.689 217.568 182.363 217.707 183.021 217.904C183.724 218.107 184.414 218.353 185.088 218.639C186.304 219.157 187.479 219.766 188.603 220.461C189.066 220.746 189.427 220.992 189.74 221.215C189.899 221.326 189.967 221.389 190.034 221.441L190.128 221.517C190.397 221.732 190.575 222.039 190.627 222.379C190.679 222.718 190.602 223.065 190.41 223.35C190.218 223.635 189.926 223.838 189.592 223.917C189.257 223.997 188.905 223.948 188.606 223.78L188.592 223.777Z" fill="#EA6363"/>
<path d="M179.683 217.836C175.037 218.183 175.069 221.707 168.99 219.331C170.641 220.431 172.353 221.437 174.117 222.344C175.819 222.903 180.726 221.792 180.726 221.792L179.683 217.836Z" fill="#EA6363"/>
<path d="M178.153 225.784C175.766 221.651 181.795 215.515 190.237 215.515C193.382 215.686 196.416 216.74 198.989 218.557C201.563 220.373 203.572 222.878 204.787 225.784H178.153Z" fill="#759BD4"/>
<path d="M200.858 224.588C200.653 224.587 200.452 224.524 200.284 224.407C200.116 224.289 199.987 224.123 199.916 223.93C199.259 222.515 198.171 221.344 196.808 220.585C196.586 220.446 196.428 220.228 196.365 219.974C196.302 219.721 196.34 219.454 196.471 219.228C196.602 219.002 196.815 218.836 197.066 218.765C197.317 218.694 197.586 218.724 197.816 218.847C199.589 219.835 200.99 221.379 201.801 223.24C201.892 223.491 201.88 223.767 201.767 224.008C201.654 224.25 201.45 224.436 201.199 224.527C201.09 224.567 200.974 224.587 200.858 224.588Z" fill="#404AA9"/>
<path d="M199.858 217.729L199.649 217.691C199.501 217.655 199.354 217.646 199.023 217.571C198.665 217.499 198.311 217.406 197.963 217.293C197.577 217.165 197.143 217.029 196.69 216.839C195.702 216.404 194.743 215.909 193.817 215.356L193.106 214.967C192.941 214.872 192.765 214.796 192.581 214.744H192.566H192.559C192.262 214.634 192.019 214.412 191.883 214.126C191.746 213.84 191.727 213.512 191.829 213.212C191.932 212.912 192.147 212.664 192.43 212.52C192.712 212.377 193.04 212.349 193.342 212.444C193.645 212.538 193.898 212.747 194.049 213.026C194.2 213.305 194.235 213.632 194.148 213.937C194.062 214.242 193.859 214.5 193.584 214.658C193.309 214.816 192.984 214.86 192.677 214.781H192.656L192.549 214.763C192.549 214.782 192.64 214.798 192.607 214.801L192.297 214.825L191.516 214.92C190.421 215.067 189.278 215.312 188.219 215.541L185.315 216.239L183.268 216.806L182.503 217.04C182.126 217.155 181.729 217.188 181.338 217.137C180.947 217.085 180.572 216.951 180.238 216.742C179.903 216.533 179.618 216.255 179.4 215.926C179.182 215.598 179.037 215.226 178.975 214.837C178.913 214.448 178.936 214.05 179.041 213.67C179.145 213.29 179.33 212.937 179.583 212.635C179.836 212.332 180.151 212.088 180.507 211.917C180.862 211.747 181.25 211.655 181.644 211.647H181.673L184.676 211.607L187.742 211.534C188.871 211.507 190.064 211.484 191.314 211.489C191.628 211.489 191.951 211.503 192.291 211.522C192.465 211.534 192.649 211.547 192.856 211.573C193.021 211.593 193.185 211.622 193.347 211.66L193.45 211.694L193.598 211.74L193.64 211.757L193.724 211.795C194.073 211.957 194.405 212.154 194.713 212.384L195.414 212.9C196.15 213.471 196.943 213.964 197.78 214.372C198.096 214.525 198.423 214.655 198.757 214.761C198.999 214.836 199.244 214.897 199.493 214.945C199.674 214.984 199.858 215.011 200.043 215.025L200.253 215.048C200.609 215.092 200.934 215.274 201.157 215.555C201.379 215.836 201.483 216.194 201.444 216.551C201.405 216.907 201.228 217.234 200.95 217.461C200.672 217.688 200.316 217.796 199.959 217.763L199.858 217.729Z" fill="#FF9491"/>
<path d="M174.564 215.244C174.227 215.245 173.902 215.122 173.65 214.897C173.399 214.673 173.239 214.363 173.203 214.028C173.166 213.693 173.255 213.356 173.452 213.083C173.649 212.809 173.941 212.618 174.27 212.547C177.929 211.753 188.541 208.921 188.656 208.893C188.904 208.827 189.165 208.832 189.41 208.907C193.332 209.454 197.294 209.654 201.251 209.505C201.418 209.446 201.596 209.422 201.773 209.433C201.95 209.444 202.123 209.49 202.282 209.568C202.441 209.647 202.583 209.756 202.699 209.891C202.815 210.025 202.904 210.181 202.959 210.349C203.072 210.696 203.045 211.074 202.882 211.401C202.72 211.728 202.436 211.978 202.091 212.097C200.671 212.596 191.63 212.137 189.031 211.616C187.165 212.112 178.247 214.474 174.85 215.212C174.756 215.232 174.66 215.243 174.564 215.244Z" fill="#FF9491"/>
<path d="M194.293 222.762L194.067 222.741L193.684 222.672C193.475 222.624 193.268 222.562 193.066 222.487C192.702 222.349 192.351 222.18 192.016 221.982C191.415 221.618 190.851 221.198 190.33 220.727C189.835 220.285 189.365 219.817 188.922 219.324C188.703 219.081 188.49 218.836 188.282 218.588C188.07 218.329 187.879 218.094 187.658 217.792L188.226 218.301L181.753 215.116L183.011 215.282L177.42 217.023C177.132 217.119 176.828 217.157 176.525 217.134C176.223 217.112 175.928 217.029 175.658 216.89C175.387 216.752 175.147 216.561 174.952 216.329C174.756 216.097 174.609 215.828 174.519 215.539C174.429 215.249 174.397 214.944 174.426 214.642C174.455 214.34 174.544 214.047 174.688 213.779C174.832 213.512 175.028 213.276 175.264 213.086C175.5 212.895 175.772 212.753 176.064 212.669C176.177 212.634 176.292 212.608 176.409 212.59L182.197 211.737L182.477 211.695C182.818 211.645 183.165 211.72 183.456 211.904L189.721 215.491L189.858 215.569C190.037 215.672 190.185 215.821 190.289 216C190.415 216.197 190.583 216.442 190.749 216.668C190.915 216.895 191.085 217.118 191.26 217.337C191.602 217.771 191.967 218.186 192.354 218.579C192.712 218.947 193.103 219.282 193.522 219.578C193.703 219.701 193.893 219.81 194.09 219.903C194.177 219.944 194.274 219.977 194.337 220L194.401 220.027L194.626 220.062C194.975 220.118 195.288 220.307 195.501 220.589C195.713 220.872 195.808 221.225 195.765 221.576C195.722 221.926 195.545 222.247 195.271 222.47C194.997 222.692 194.647 222.8 194.295 222.771L194.293 222.762Z" fill="#FF9491"/>
<path d="M189.244 225.585L188.831 225.357C188.668 225.267 188.511 225.169 188.358 225.063C188.046 224.853 187.744 224.627 187.455 224.386C186.92 223.925 186.419 223.426 185.955 222.894C185.507 222.373 185.089 221.827 184.701 221.26C184.505 220.978 184.319 220.691 184.143 220.398L183.88 219.956L183.615 219.469L184.192 220.128L177.903 216.336C177.691 216.216 177.506 216.054 177.358 215.862C177.21 215.669 177.103 215.449 177.041 215.214C176.98 214.979 176.966 214.734 177.001 214.493C177.035 214.253 177.118 214.022 177.243 213.814C177.369 213.606 177.535 213.425 177.731 213.282C177.927 213.139 178.15 213.037 178.387 212.982C178.624 212.926 178.869 212.919 179.108 212.96C179.348 213 179.577 213.089 179.781 213.22C179.812 213.237 179.848 213.259 179.875 213.28L185.918 217.454L186.009 217.517C186.226 217.665 186.395 217.872 186.496 218.114L186.662 218.469L186.856 218.848C186.99 219.101 187.133 219.353 187.282 219.6C187.575 220.091 187.896 220.566 188.241 221.023C188.579 221.462 188.947 221.877 189.343 222.265C189.54 222.438 189.747 222.635 189.918 222.757C190.015 222.842 190.119 222.919 190.23 222.985L190.628 223.239C190.941 223.422 191.167 223.722 191.258 224.072C191.349 224.423 191.297 224.795 191.114 225.107C190.931 225.419 190.631 225.646 190.28 225.737C189.93 225.828 189.558 225.776 189.246 225.592L189.244 225.585Z" fill="#FF9491"/>
<path d="M168.99 219.329C177.113 222.802 177.736 218.56 182.6 219.163L178.334 212.313C175.878 212.881 173.326 212.881 170.87 212.313C167.339 211.507 168.6 219.187 168.6 219.187C168.741 219.219 168.877 219.268 169.005 219.334L168.99 219.329Z" fill="#FF9491"/>
<path d="M100.841 226.018H169.477C168.512 222.569 172.452 212.955 179.505 210.864L135.555 205.965L151.949 182.243L131.499 162.569C126.064 165.683 96.0811 212.49 100.841 226.018Z" fill="#404AA9"/>
<path d="M135.308 203.267C135.308 203.267 140.674 202.06 139.28 207.307C137.887 212.553 132.219 208.232 132.219 208.232L135.308 203.267Z" fill="#404AA9"/>
<path d="M121.585 209.158H58.7638C58.313 209.158 57.8667 209.246 57.4503 209.419C57.0339 209.591 56.6555 209.844 56.3368 210.163C56.0181 210.482 55.7652 210.86 55.5927 211.276C55.4203 211.693 55.3315 212.139 55.3315 212.59V212.659C55.3313 213.11 55.4199 213.556 55.5923 213.973C55.7647 214.39 56.0175 214.768 56.3363 215.087C56.655 215.406 57.0335 215.659 57.45 215.831C57.8665 216.004 58.3129 216.093 58.7638 216.093H121.585V209.158Z" fill="white"/>
<path d="M123.839 217.023H58.758C57.6006 217.022 56.4911 216.561 55.6732 215.742C54.8553 214.923 54.3958 213.813 54.3958 212.656V212.587C54.397 211.43 54.857 210.322 55.6748 209.504C56.4926 208.686 57.6014 208.226 58.758 208.225H123.839C124.085 208.225 124.321 208.323 124.495 208.497C124.67 208.671 124.768 208.908 124.768 209.154C124.768 209.4 124.67 209.637 124.495 209.811C124.321 209.985 124.085 210.083 123.839 210.083H58.758C58.0946 210.083 57.4585 210.347 56.9895 210.816C56.5204 211.285 56.2569 211.921 56.2569 212.584V212.656C56.2569 213.319 56.5204 213.956 56.9895 214.425C57.4585 214.894 58.0946 215.157 58.758 215.157H123.839C124.085 215.157 124.321 215.255 124.495 215.429C124.67 215.604 124.768 215.84 124.768 216.086C124.768 216.333 124.67 216.569 124.495 216.743C124.321 216.917 124.085 217.015 123.839 217.015V217.023Z" fill="#ED5C61"/>
<path d="M131.496 217.93H68.6665C67.756 217.931 66.8831 218.293 66.2394 218.937C65.5958 219.581 65.2342 220.454 65.2342 221.364V221.433C65.2342 221.884 65.323 222.33 65.4955 222.747C65.6679 223.163 65.9208 223.542 66.2395 223.86C66.5582 224.179 66.9366 224.432 67.353 224.604C67.7694 224.777 68.2158 224.866 68.6665 224.866H131.495L131.496 217.93Z" fill="white"/>
<path d="M133.748 225.794H68.6679C67.5114 225.793 66.4026 225.333 65.5847 224.515C64.7669 223.697 64.307 222.588 64.3058 221.432V221.363C64.307 220.206 64.7669 219.097 65.5847 218.279C66.4026 217.462 67.5114 217.002 68.6679 217H133.748C133.995 217 134.231 217.098 134.405 217.273C134.58 217.447 134.678 217.683 134.678 217.93C134.678 218.176 134.58 218.412 134.405 218.587C134.231 218.761 133.995 218.859 133.748 218.859H68.6679C68.0046 218.859 67.3684 219.122 66.8994 219.591C66.4304 220.06 66.1669 220.696 66.1669 221.36V221.429C66.1669 222.092 66.4304 222.728 66.8994 223.197C67.3684 223.666 68.0046 223.93 68.6679 223.93H133.748C133.988 223.939 134.216 224.042 134.382 224.215C134.548 224.388 134.641 224.619 134.641 224.859C134.641 225.099 134.548 225.33 134.382 225.503C134.216 225.676 133.988 225.779 133.748 225.788V225.794Z" fill="#FAB620"/>
<path d="M107.624 205.187C107.377 205.189 107.136 205.105 106.943 204.95C106.75 204.795 106.616 204.579 106.565 204.337C106.513 204.095 106.546 203.842 106.659 203.622C106.771 203.401 106.956 203.227 107.183 203.127C112.738 200.658 114.359 197.295 113.509 195.057C113.428 194.78 113.293 194.521 113.112 194.297C112.931 194.072 112.707 193.885 112.453 193.747C112.199 193.609 111.92 193.523 111.633 193.494C111.345 193.465 111.055 193.492 110.778 193.576C110.507 193.664 110.213 193.641 109.959 193.511C109.705 193.382 109.513 193.157 109.425 192.886C109.337 192.615 109.36 192.32 109.49 192.066C109.619 191.812 109.844 191.62 110.115 191.532C111.197 191.2 112.365 191.302 113.373 191.817C114.38 192.332 115.148 193.219 115.511 194.291C116.641 197.244 115.364 201.844 108.058 205.094C107.922 205.155 107.774 205.186 107.624 205.187Z" fill="white"/>
<g opacity="0.63">
<path opacity="0.63" d="M49.813 131.506C49.813 132.728 50.1754 133.922 50.8543 134.938C51.5333 135.955 52.4984 136.747 53.6275 137.214C54.7565 137.682 55.9989 137.804 57.1976 137.566C58.3962 137.327 59.4972 136.739 60.3614 135.875C61.2255 135.011 61.814 133.91 62.0525 132.711C62.2909 131.512 62.1685 130.27 61.7008 129.141C61.2331 128.012 60.4412 127.047 59.425 126.368C58.4089 125.689 57.2142 125.326 55.9921 125.326C54.3533 125.326 52.7816 125.977 51.6228 127.136C50.464 128.295 49.813 129.867 49.813 131.506Z" fill="white"/>
</g>
<path d="M95.8236 208.236C90.6935 202.438 90.6523 188.349 90.6523 188.349H110.565C110.565 188.349 110.904 202.438 105.934 208.236H95.8236Z" fill="white"/>
<path d="M160.263 120.482C160.057 120.936 160.04 121.453 160.216 121.92C160.392 122.387 160.746 122.765 161.2 122.971C161.466 123.09 161.755 123.144 162.046 123.13L164.315 126.331C164.46 126.537 164.681 126.676 164.93 126.718C165.178 126.761 165.433 126.703 165.639 126.558L165.653 126.546C165.859 126.4 165.998 126.179 166.04 125.93C166.082 125.682 166.024 125.427 165.878 125.222L163.655 122.087C163.664 122.069 163.676 122.054 163.685 122.035C163.89 121.581 163.907 121.063 163.731 120.597C163.555 120.13 163.201 119.752 162.747 119.547C162.292 119.341 161.775 119.324 161.308 119.5C160.842 119.676 160.464 120.03 160.258 120.485L160.263 120.482Z" fill="white"/>
<path d="M381.401 91.6885C382.298 91.6885 383.159 92.045 383.793 92.6796C384.428 93.3141 384.784 94.1748 384.784 95.0723" fill="white"/>
<path d="M396.593 160.581H371.223V225.729H396.593V160.581Z" fill="#DB4954"/>
<path d="M418.742 160.581H396.593V225.729H418.742V160.581Z" fill="#ED5C61"/>
<path d="M415.412 166.693H399.706V189.751H415.412V166.693Z" fill="white"/>
<path d="M413.204 169.217H401.424V173.831H413.204V169.217Z" fill="#FFE3BB"/>
<path d="M412.907 209.009C412.907 207.973 412.6 206.96 412.024 206.098C411.448 205.237 410.63 204.565 409.673 204.169C408.715 203.772 407.662 203.668 406.646 203.871C405.63 204.073 404.696 204.572 403.963 205.304C403.231 206.037 402.732 206.971 402.53 207.987C402.327 209.003 402.431 210.056 402.828 211.014C403.224 211.971 403.896 212.789 404.757 213.365C405.619 213.941 406.632 214.248 407.668 214.248C409.057 214.248 410.39 213.696 411.372 212.713C412.355 211.731 412.907 210.398 412.907 209.009Z" fill="#EEFEFF"/>
<path d="M392.864 160.581H370.715V225.729H392.864V160.581Z" fill="#759BD4"/>
<path d="M389.534 166.693H373.827V189.751H389.534V166.693Z" fill="white"/>
<path d="M387.327 169.217H375.547V173.831H387.327V169.217Z" fill="#FFE3BB"/>
<path d="M387.028 209.009C387.028 207.973 386.721 206.96 386.145 206.098C385.569 205.237 384.751 204.565 383.794 204.169C382.837 203.772 381.783 203.668 380.767 203.871C379.751 204.073 378.817 204.572 378.085 205.304C377.352 206.037 376.853 206.971 376.651 207.987C376.449 209.003 376.552 210.056 376.949 211.014C377.345 211.971 378.017 212.789 378.878 213.365C379.74 213.941 380.753 214.248 381.789 214.248C383.179 214.248 384.511 213.696 385.494 212.713C386.476 211.731 387.028 210.398 387.028 209.009Z" fill="#EEFEFF"/>
<path d="M381.789 205.245C383.05 205.246 384.269 205.702 385.22 206.529C386.172 207.356 386.794 208.499 386.971 209.747C387.007 209.504 387.026 209.258 387.028 209.012C387.028 207.622 386.476 206.29 385.494 205.307C384.511 204.325 383.179 203.773 381.789 203.773C380.4 203.773 379.067 204.325 378.085 205.307C377.102 206.29 376.55 207.622 376.55 209.012C376.552 209.258 376.571 209.504 376.607 209.747C376.784 208.499 377.406 207.356 378.358 206.529C379.31 205.702 380.528 205.246 381.789 205.245Z" fill="#404AA9"/>
<path d="M407.668 205.245C408.929 205.246 410.147 205.702 411.099 206.529C412.051 207.356 412.673 208.499 412.85 209.747C412.886 209.504 412.905 209.258 412.907 209.012C412.907 207.622 412.355 206.29 411.372 205.307C410.39 204.325 409.057 203.773 407.668 203.773C406.278 203.773 404.946 204.325 403.963 205.307C402.981 206.29 402.429 207.622 402.429 209.012C402.431 209.258 402.45 209.504 402.486 209.747C402.663 208.499 403.284 207.356 404.236 206.529C405.188 205.701 406.407 205.246 407.668 205.245Z" fill="#404AA9"/>
<path d="M370.715 160.581H345.346V225.729H370.715V160.581Z" fill="#6089C4"/>
<path d="M430.11 225.796H147.407V237.016H430.11V225.796Z" fill="#EDF2F6"/>
<path d="M317.458 222.571H203.65V225.795H317.458V222.571Z" fill="#404AA9"/>
<path d="M332.821 222.571H219.014V225.795H332.821V222.571Z" fill="#759BD4"/>
<path d="M336.811 225.796L266.462 237.016H430.111V225.796H336.811Z" fill="#C5DEEA"/>
<path d="M235.979 113.355H338.597C340.353 113.355 342.037 114.053 343.279 115.294C344.52 116.536 345.218 118.22 345.218 119.976V193.658C345.218 195.414 344.52 197.098 343.279 198.34C342.037 199.581 340.353 200.279 338.597 200.279H235.979C234.223 200.279 232.539 199.581 231.297 198.34C230.056 197.098 229.358 195.414 229.358 193.658V119.976C229.358 118.22 230.056 116.536 231.297 115.294C232.539 114.053 234.223 113.355 235.979 113.355V113.355Z" fill="#404AA9"/>
<path d="M239.084 113.355H341.703C343.459 113.355 345.143 114.053 346.384 115.294C347.626 116.536 348.323 118.22 348.323 119.976V193.658C348.323 195.414 347.626 197.098 346.384 198.34C345.143 199.581 343.459 200.279 341.703 200.279H239.084C237.329 200.279 235.645 199.581 234.403 198.34C233.161 197.098 232.464 195.414 232.464 193.658V119.976C232.464 118.22 233.161 116.536 234.403 115.294C235.645 114.053 237.329 113.355 239.084 113.355V113.355Z" fill="#759BD4"/>
<path d="M310.546 153.806H278.929C277.978 153.806 277.207 154.577 277.207 155.528C277.207 156.479 277.978 157.25 278.929 157.25H310.546C311.497 157.25 312.268 156.479 312.268 155.528C312.268 154.577 311.497 153.806 310.546 153.806Z" fill="#404AA9"/>
<path d="M255.347 188.285C255.347 188.008 255.265 187.738 255.111 187.507C254.957 187.277 254.739 187.098 254.483 186.991C254.227 186.885 253.945 186.858 253.673 186.912C253.402 186.966 253.152 187.099 252.956 187.295C252.76 187.491 252.627 187.741 252.573 188.012C252.519 188.284 252.547 188.566 252.653 188.821C252.759 189.077 252.938 189.296 253.169 189.45C253.399 189.604 253.67 189.686 253.947 189.686C254.318 189.686 254.674 189.539 254.937 189.276C255.2 189.013 255.347 188.657 255.347 188.285Z" fill="#404AA9"/>
<path d="M259.765 188.285C259.765 188.008 259.683 187.738 259.529 187.507C259.375 187.277 259.157 187.098 258.901 186.991C258.645 186.885 258.363 186.858 258.091 186.912C257.82 186.966 257.57 187.099 257.374 187.295C257.178 187.491 257.045 187.741 256.991 188.012C256.937 188.284 256.965 188.566 257.071 188.821C257.177 189.077 257.356 189.296 257.587 189.45C257.817 189.604 258.088 189.686 258.365 189.686C258.736 189.686 259.092 189.539 259.355 189.276C259.618 189.013 259.765 188.657 259.765 188.285Z" fill="#404AA9"/>
<path d="M322.847 189.687C323.62 189.687 324.247 189.06 324.247 188.287C324.247 187.513 323.62 186.886 322.847 186.886C322.073 186.886 321.446 187.513 321.446 188.287C321.446 189.06 322.073 189.687 322.847 189.687Z" fill="#404AA9"/>
<path d="M327.266 189.687C328.039 189.687 328.667 189.06 328.667 188.287C328.667 187.513 328.039 186.886 327.266 186.886C326.492 186.886 325.865 187.513 325.865 188.287C325.865 189.06 326.492 189.687 327.266 189.687Z" fill="#404AA9"/>
<path d="M322.941 154.334H280.336V156.816H322.941V154.334Z" fill="#759BD4"/>
<path d="M322.941 156.816H280.336V157.892H322.941V156.816Z" fill="#759BD4"/>
<path d="M322.941 157.89H280.336V158.966H322.941V157.89Z" fill="#749AD3"/>
<path d="M322.941 158.966H280.336V160.041H322.941V158.966Z" fill="#7499D3"/>
<path d="M322.941 160.041H280.336V161.117H322.941V160.041Z" fill="#7398D2"/>
<path d="M322.941 161.115H280.336V162.191H322.941V161.115Z" fill="#7297D2"/>
<path d="M322.941 162.191H280.336V163.266H322.941V162.191Z" fill="#7296D1"/>
<path d="M322.941 163.266H280.336V164.341H322.941V163.266Z" fill="#7195D1"/>
<path d="M322.941 164.341H280.336V165.417H322.941V164.341Z" fill="#7094D0"/>
<path d="M322.941 165.415H280.336V166.491H322.941V165.415Z" fill="#7093D0"/>
<path d="M322.941 166.491H280.336V167.566H322.941V166.491Z" fill="#6F92CF"/>
<path d="M322.941 167.566H280.336V168.642H322.941V167.566Z" fill="#6E91CF"/>
<path d="M322.941 168.64H280.336V169.716H322.941V168.64Z" fill="#6E90CE"/>
<path d="M322.941 169.716H280.336V170.791H322.941V169.716Z" fill="#6D8FCE"/>
<path d="M322.941 170.791H280.336V171.867H322.941V170.791Z" fill="#6C8ECD"/>
<path d="M322.941 171.867H280.336V172.942H322.941V171.867Z" fill="#6C8DCC"/>
<path d="M322.941 172.941H280.336V174.016H322.941V172.941Z" fill="#6B8CCC"/>
<path d="M322.941 174.016H280.336V175.092H322.941V174.016Z" fill="#6A8BCB"/>
<path d="M322.941 175.092H280.336V176.167H322.941V175.092Z" fill="#6A8ACB"/>
<path d="M322.941 176.166H280.336V177.241H322.941V176.166Z" fill="#6989CA"/>
<path d="M322.941 177.241H280.336V178.316H322.941V177.241Z" fill="#6888CA"/>
<path d="M322.941 178.317H280.336V179.392H322.941V178.317Z" fill="#6887C9"/>
<path d="M322.941 179.392H280.336V180.467H322.941V179.392Z" fill="#6786C9"/>
<path d="M322.941 180.466H280.336V181.541H322.941V180.466Z" fill="#6685C8"/>
<path d="M322.941 181.541H280.336V182.617H322.941V181.541Z" fill="#6684C8"/>
<path d="M322.941 182.617H280.336V183.692H322.941V182.617Z" fill="#6583C7"/>
<path d="M322.941 183.691H280.336V184.766H322.941V183.691Z" fill="#6482C7"/>
<path d="M322.941 184.766H280.336V185.842H322.941V184.766Z" fill="#6481C6"/>
<path d="M322.941 185.842H280.336V186.917H322.941V185.842Z" fill="#6380C5"/>
<path d="M322.941 186.917H280.336V187.993H322.941V186.917Z" fill="#627FC5"/>
<path d="M322.941 187.991H280.336V189.067H322.941V187.991Z" fill="#627EC4"/>
<path d="M322.941 189.067H280.336V190.142H322.941V189.067Z" fill="#617DC4"/>
<path d="M322.941 190.142H280.336V191.218H322.941V190.142Z" fill="#607CC3"/>
<path d="M322.941 191.216H280.336V192.292H322.941V191.216Z" fill="#607BC3"/>
<path d="M322.941 192.292H280.336V193.367H322.941V192.292Z" fill="#5F7AC2"/>
<path d="M322.941 193.367H280.336V194.442H322.941V193.367Z" fill="#5E79C2"/>
<path d="M322.941 194.443H280.336V195.518H322.941V194.443Z" fill="#5E78C1"/>
<path d="M322.941 195.516H280.336V196.592H322.941V195.516Z" fill="#5D77C1"/>
<path d="M322.941 196.592H280.336V197.667H322.941V196.592Z" fill="#5C76C0"/>
<path d="M322.941 197.667H280.336V198.743H322.941V197.667Z" fill="#5C75C0"/>
<path d="M322.941 198.741H280.336V199.817H322.941V198.741Z" fill="#5B74BF"/>
<path d="M322.941 199.817H280.336V200.892H322.941V199.817Z" fill="#5B73BF"/>
<path d="M322.941 200.892H280.336V201.968H322.941V200.892Z" fill="#5A71BE"/>
<path d="M322.941 201.968H280.336V203.043H322.941V201.968Z" fill="#5970BD"/>
<path d="M322.941 203.042H280.336V204.117H322.941V203.042Z" fill="#596FBD"/>
<path d="M322.941 204.117H280.336V205.193H322.941V204.117Z" fill="#586EBC"/>
<path d="M322.941 205.193H280.336V206.268H322.941V205.193Z" fill="#576DBC"/>
<path d="M322.941 206.267H280.336V207.342H322.941V206.267Z" fill="#576CBB"/>
<path d="M322.941 207.342H280.336V208.417H322.941V207.342Z" fill="#566BBB"/>
<path d="M322.941 208.417H280.336V209.493H322.941V208.417Z" fill="#556ABA"/>
<path d="M322.941 209.493H280.336V210.568H322.941V209.493Z" fill="#5569BA"/>
<path d="M322.941 210.567H280.336V211.642H322.941V210.567Z" fill="#5468B9"/>
<path d="M322.941 211.642H280.336V212.718H322.941V211.642Z" fill="#5367B9"/>
<path d="M322.941 212.718H280.336V213.793H322.941V212.718Z" fill="#5366B8"/>
<path d="M322.941 213.792H280.336V214.867H322.941V213.792Z" fill="#5265B8"/>
<path d="M322.941 214.867H280.336V215.943H322.941V214.867Z" fill="#5164B7"/>
<path d="M322.941 215.943H280.336V217.018H322.941V215.943Z" fill="#5163B6"/>
<path d="M322.941 217.018H280.336V218.094H322.941V217.018Z" fill="#5062B6"/>
<path d="M322.941 218.092H280.336V219.168H322.941V218.092Z" fill="#4F61B5"/>
<path d="M322.941 219.168H280.336V220.243H322.941V219.168Z" fill="#4F60B5"/>
<path d="M322.941 220.243H280.336V221.318H322.941V220.243Z" fill="#4E5FB4"/>
<path d="M322.941 221.317H280.336V222.393H322.941V221.317Z" fill="#4D5EB4"/>
<path d="M322.941 222.393H280.336V223.468H322.941V222.393Z" fill="#4D5DB3"/>
<path d="M322.941 223.468H280.336V224.543H322.941V223.468Z" fill="#4C5CB3"/>
<path d="M322.941 224.543H280.336V225.619H322.941V224.543Z" fill="#4B5BB2"/>
<path d="M322.941 225.617H280.336V225.794H322.941V225.617Z" fill="#4B5AB2"/>
<path d="M284.929 225.795H261.978C261.69 225.795 261.413 225.681 261.21 225.477C261.006 225.273 260.891 224.997 260.891 224.709C260.891 224.421 261.006 224.144 261.21 223.941C261.413 223.737 261.69 223.622 261.978 223.622H284.929C286.07 223.623 287.197 223.367 288.226 222.874C289.256 222.381 290.161 221.663 290.877 220.774C291.592 219.885 292.099 218.846 292.36 217.735C292.621 216.624 292.63 215.469 292.385 214.354L279.509 155.763C279.474 155.622 279.467 155.476 279.49 155.332C279.512 155.189 279.564 155.052 279.64 154.928C279.716 154.805 279.817 154.698 279.935 154.615C280.054 154.531 280.188 154.472 280.329 154.44C280.471 154.409 280.617 154.407 280.76 154.433C280.903 154.46 281.039 154.514 281.16 154.594C281.281 154.674 281.385 154.777 281.465 154.898C281.546 155.018 281.602 155.154 281.629 155.296L294.505 213.887C294.821 215.32 294.811 216.805 294.477 218.234C294.142 219.662 293.492 220.997 292.573 222.141C291.654 223.284 290.49 224.207 289.167 224.841C287.844 225.475 286.396 225.804 284.929 225.804V225.795Z" fill="#404AA9"/>
<path d="M214.417 197.841C216.048 197.788 218.758 195.791 220.265 199.047C221.771 202.303 214.417 197.841 214.417 197.841Z" fill="#404AA9"/>
<path d="M147.407 225.796H22.8882V237.016H147.407V225.796Z" fill="#759BD4"/>
<path d="M463.848 237.325H294.738C294.546 237.325 294.361 237.249 294.226 237.113C294.09 236.978 294.014 236.794 294.014 236.602C294.014 236.41 294.09 236.225 294.226 236.09C294.361 235.954 294.546 235.878 294.738 235.878H463.848C464.039 235.878 464.224 235.954 464.359 236.09C464.495 236.225 464.571 236.41 464.571 236.602C464.571 236.794 464.495 236.978 464.359 237.113C464.224 237.249 464.039 237.325 463.848 237.325Z" fill="#C5DEEA"/>
<path opacity="0.2" d="M106.549 188.344C106.549 188.344 107.615 182.271 100.68 175.518C93.7449 168.765 95.2043 162.56 108.163 150.331C121.121 138.102 120.939 124.779 114.733 116.384C108.528 107.99 93.1961 99.0446 77.8661 110.179C62.5361 121.313 70.0187 130.255 64.3604 135.913C58.7021 141.571 46.1085 145.586 42.8233 149.419C39.5381 153.251 35.1583 171.138 55.9642 175.518C76.7701 179.898 87.9042 179.817 94.1098 188.344C100.315 196.871 106.549 188.344 106.549 188.344Z" fill="white"/>
<defs>
<linearGradient id="paint0_linear" x1="-22.5984" y1="227.61" x2="286.553" y2="-102.335" gradientUnits="userSpaceOnUse">
<stop stop-color="#794AFF"/>
<stop offset="1" stop-color="#4191FC"/>
</linearGradient>
<linearGradient id="paint1_linear" x1="74.7427" y1="36.1547" x2="190.802" y2="255.701" gradientUnits="userSpaceOnUse">
<stop stop-color="#F6A5A5"/>
<stop offset="1" stop-color="#C68DFF"/>
</linearGradient>
</defs>
</svg>
