<svg width="128" height="34" viewBox="0 0 128 34" fill="none" xmlns="http://www.w3.org/2000/svg">
<rect width="34" height="34" fill="#044FAD"/>
<path d="M18.3924 24.4863V21.5381C18.3924 21.1381 18.7166 20.8141 19.1164 20.8141C20.5429 20.8141 21.319 19.3511 21.4267 16.4631H19.1164C18.7167 16.4631 18.3924 16.1386 18.3924 15.739V9.51383C18.3924 9.11396 18.7166 8.78996 19.1164 8.78996H25.2759C25.6756 8.78996 26 9.11431 26 9.51383V15.7391C26 17.1234 25.8603 18.3937 25.5859 19.5156C25.3041 20.6658 24.8715 21.6713 24.3003 22.5045C23.713 23.3608 22.9776 24.0327 22.116 24.5007C21.2478 24.9716 20.2386 25.2106 19.1161 25.2106C18.7167 25.2103 18.3924 24.886 18.3924 24.4863ZM9.05468 20.8139C8.65496 20.8139 8.33081 21.1381 8.33081 21.5376V24.4864C8.33081 24.886 8.65496 25.2101 9.05468 25.2101C10.1767 25.2101 11.1864 24.971 12.054 24.5001C12.9161 24.0322 13.6513 23.3609 14.2386 22.504C14.8101 21.6707 15.2427 20.6652 15.5245 19.5145C15.799 18.3926 15.9385 17.1222 15.9385 15.7385V9.51322C15.9385 9.11335 15.614 8.78935 15.2144 8.78935H9.05468C8.65496 8.78935 8.33081 9.11365 8.33081 9.51322V15.7385C8.33081 16.1383 8.65496 16.4625 9.05468 16.4625H11.3325C11.2261 19.3508 10.4613 20.8139 9.05468 20.8139Z" fill="white"/>
<path d="M47.22 12.166H50.412V14H44.826V4.102H47.22V12.166ZM56.2155 3.948C57.1489 3.948 57.9935 4.16733 58.7495 4.606C59.5149 5.03533 60.1169 5.63733 60.5555 6.412C60.9942 7.17733 61.2135 8.04533 61.2135 9.016C61.2135 9.98667 60.9895 10.8593 60.5415 11.634C60.1029 12.4087 59.5009 13.0153 58.7355 13.454C57.9795 13.8833 57.1395 14.098 56.2155 14.098C55.2915 14.098 54.4469 13.8833 53.6815 13.454C52.9255 13.0153 52.3235 12.4087 51.8755 11.634C51.4369 10.8593 51.2175 9.98667 51.2175 9.016C51.2175 8.04533 51.4369 7.17733 51.8755 6.412C52.3235 5.63733 52.9255 5.03533 53.6815 4.606C54.4469 4.16733 55.2915 3.948 56.2155 3.948ZM56.2155 6.174C55.4315 6.174 54.8062 6.43067 54.3395 6.944C53.8822 7.448 53.6535 8.13867 53.6535 9.016C53.6535 9.884 53.8822 10.5747 54.3395 11.088C54.8062 11.6013 55.4315 11.858 56.2155 11.858C56.9902 11.858 57.6109 11.6013 58.0775 11.088C58.5442 10.5747 58.7775 9.884 58.7775 9.016C58.7775 8.148 58.5442 7.45733 58.0775 6.944C57.6202 6.43067 56.9995 6.174 56.2155 6.174ZM67.6404 14L65.4984 10.262H64.9524V14H62.5584V4.102H66.6464C67.4304 4.102 68.0931 4.23733 68.6344 4.508C69.1758 4.77867 69.5818 5.152 69.8524 5.628C70.1231 6.09467 70.2584 6.63133 70.2584 7.238C70.2584 7.95667 70.0578 8.568 69.6564 9.072C69.2644 9.576 68.6904 9.92133 67.9344 10.108L70.2864 14H67.6404ZM64.9524 8.624H66.4364C66.9124 8.624 67.2624 8.52133 67.4864 8.316C67.7104 8.10133 67.8224 7.78867 67.8224 7.378C67.8224 6.986 67.7058 6.678 67.4724 6.454C67.2484 6.23 66.9031 6.118 66.4364 6.118H64.9524V8.624ZM73.8528 6.006V8.078H77.1988V9.884H73.8528V12.082H77.6188V14H71.4588V4.102H77.6188V6.006H73.8528ZM90.1083 4.172V14H87.7143V7.854L85.5863 14H83.5143L81.3723 7.84V14H78.9783V4.172H81.9043L84.5783 11.018L87.1963 4.172H90.1083ZM47.22 20.102V30H44.826V20.102H47.22ZM51.2669 26.528V30H48.8729V20.102H52.7509C53.9269 20.102 54.8229 20.396 55.4389 20.984C56.0549 21.5627 56.3629 22.3467 56.3629 23.336C56.3629 23.952 56.2229 24.5027 55.9429 24.988C55.6722 25.464 55.2662 25.842 54.7249 26.122C54.1835 26.3927 53.5255 26.528 52.7509 26.528H51.2669ZM52.4849 24.61C53.4462 24.61 53.9269 24.1853 53.9269 23.336C53.9269 22.468 53.4462 22.034 52.4849 22.034H51.2669V24.61H52.4849ZM64.6528 27.214C64.6528 27.7367 64.5175 28.2173 64.2468 28.656C63.9855 29.0947 63.5935 29.4447 63.0708 29.706C62.5575 29.9673 61.9322 30.098 61.1948 30.098C60.0842 30.098 59.1695 29.8273 58.4508 29.286C57.7322 28.7447 57.3402 27.9887 57.2748 27.018H59.8228C59.8602 27.3913 59.9908 27.6853 60.2148 27.9C60.4482 28.1147 60.7422 28.222 61.0968 28.222C61.4048 28.222 61.6475 28.138 61.8248 27.97C62.0022 27.802 62.0908 27.578 62.0908 27.298C62.0908 27.046 62.0068 26.836 61.8388 26.668C61.6802 26.5 61.4795 26.3647 61.2368 26.262C60.9942 26.15 60.6582 26.0193 60.2288 25.87C59.6035 25.6553 59.0902 25.45 58.6888 25.254C58.2968 25.0487 57.9562 24.75 57.6668 24.358C57.3868 23.9567 57.2468 23.4387 57.2468 22.804C57.2468 22.216 57.3962 21.7073 57.6948 21.278C57.9935 20.8487 58.4042 20.522 58.9268 20.298C59.4588 20.0647 60.0655 19.948 60.7468 19.948C61.8482 19.948 62.7208 20.2093 63.3648 20.732C64.0182 21.2547 64.3868 21.9733 64.4708 22.888H61.8808C61.8342 22.5613 61.7128 22.3047 61.5168 22.118C61.3302 21.922 61.0735 21.824 60.7468 21.824C60.4668 21.824 60.2382 21.8987 60.0608 22.048C59.8928 22.1973 59.8088 22.4167 59.8088 22.706C59.8088 22.9393 59.8835 23.14 60.0328 23.308C60.1915 23.4667 60.3875 23.5973 60.6208 23.7C60.8542 23.8027 61.1902 23.9333 61.6288 24.092C62.2635 24.3067 62.7815 24.5213 63.1828 24.736C63.5842 24.9413 63.9295 25.2447 64.2188 25.646C64.5082 26.0473 64.6528 26.57 64.6528 27.214ZM68.3004 20.102V25.814C68.3004 26.4673 68.4451 26.9667 68.7344 27.312C69.0331 27.6573 69.4624 27.83 70.0224 27.83C70.5824 27.83 71.0071 27.6573 71.2964 27.312C71.5951 26.9667 71.7444 26.4673 71.7444 25.814V20.102H74.1384V25.814C74.1384 26.7473 73.9564 27.536 73.5924 28.18C73.2284 28.8147 72.7291 29.2953 72.0944 29.622C71.4691 29.9393 70.7597 30.098 69.9664 30.098C69.1731 30.098 68.4731 29.9393 67.8664 29.622C67.2597 29.3047 66.7837 28.824 66.4384 28.18C66.0931 27.536 65.9204 26.7473 65.9204 25.814V20.102H68.3004ZM86.8681 20.172V30H84.4741V23.854L82.3461 30H80.2741L78.1321 23.84V30H75.7381V20.172H78.6641L81.3381 27.018L83.9561 20.172H86.8681Z" fill="#2080F7"/>
</svg>
